<svg xmlns="http://www.w3.org/2000/svg" width="16" height="16" viewBox="0 0 16 16">
  <g id="ic-order-tracking" transform="translate(-909 -168)">
    <rect id="icon_frame" data-name="icon frame" width="16" height="16" transform="translate(909 168)" fill="none"/>
    <g id="Group_11696" data-name="Group 11696" transform="translate(910 170.557)">
      <path id="Path_2819" data-name="Path 2819" d="M736.184-28.18c-.4,0-.784,0-1.17,0a.492.492,0,0,1-.547-.507.46.46,0,0,1,.418-.475c.226-.022.455-.012.682-.014.169,0,.337,0,.505,0,.084,0,.116-.029.144-.11a1.88,1.88,0,0,1,1.713-1.381,1.892,1.892,0,0,1,1.928,1.347.171.171,0,0,0,.2.145c.847-.005,1.694,0,2.54,0,.084,0,.139,0,.175-.111a1.921,1.921,0,0,1,1.832-1.389,1.93,1.93,0,0,1,1.826,1.4c.009.029.02.057.031.088h.9c0-.058.006-.108.007-.158,0-.746,0-1.493,0-2.239a.464.464,0,0,0-.083-.247c-.171-.244-.358-.476-.532-.718a.227.227,0,0,0-.21-.105q-1.746,0-3.491,0c-.412,0-.586-.179-.586-.606V-36.61h-7.384a1.066,1.066,0,0,1-.25-.023.477.477,0,0,1-.352-.516.473.473,0,0,1,.418-.444.549.549,0,0,1,.074-.007q3.974,0,7.947,0a.484.484,0,0,1,.506.534c0,.143,0,.285,0,.454h.163c.6,0,1.2.006,1.8,0a.554.554,0,0,1,.553.354c.427.887.853,1.774,1.3,2.652a6,6,0,0,0,.484.731c.149.21.307.413.464.617a.7.7,0,0,1,.147.439q0,1.542,0,3.082a.5.5,0,0,1-.531.558q-.6.008-1.2,0a.156.156,0,0,0-.179.128,1.91,1.91,0,0,1-1.808,1.336,1.9,1.9,0,0,1-1.809-1.332.165.165,0,0,0-.191-.132q-1.278,0-2.555,0a.165.165,0,0,0-.191.131,1.9,1.9,0,0,1-1.809,1.333,1.92,1.92,0,0,1-1.811-1.335C736.216-28.09,736.2-28.128,736.184-28.18Zm9.917-5.472a.164.164,0,0,0,0-.041c-.3-.621-.6-1.241-.906-1.859a.182.182,0,0,0-.141-.069c-.47-.005-.94,0-1.41,0h-.221v1.971Zm-7.1,4.96a.967.967,0,0,0-.948-.987.969.969,0,0,0-.962.974.974.974,0,0,0,.957,1A.971.971,0,0,0,739-28.692Zm5.59.983a.977.977,0,0,0,.965-.974.975.975,0,0,0-.957-1,.971.971,0,0,0-.957.98A.976.976,0,0,0,744.587-27.708Z" transform="translate(-733.319 37.601)" fill="#fff"/>
      <path id="Path_2820" data-name="Path 2820" d="M736.553-30.534q-1.243,0-2.486,0a1.538,1.538,0,0,1-.3-.021.527.527,0,0,1-.444-.454.505.505,0,0,1,.408-.489,1.233,1.233,0,0,1,.3-.034q2.544,0,5.087,0a1.229,1.229,0,0,1,.3.034.5.5,0,0,1,.406.521.561.561,0,0,1-.536.436c-.082.007-.165.008-.248.008Z" transform="translate(-734.319 35.311)" fill="#fff"/>
      <path id="Path_2821" data-name="Path 2821" d="M737.81-34.5c.867,0,1.735,0,2.6,0,.367,0,.624.193.64.463.018.289-.234.517-.6.53-.223.008-.447,0-.67,0h-4.536c-.357,0-.605-.143-.674-.384-.09-.312.173-.6.574-.608.51-.01,1.021,0,1.531,0Z" transform="translate(-734.319 36.43)" fill="#fff"/>
      <path id="Path_2822" data-name="Path 2822" d="M737.052-28.552c.592,0,1.186-.011,1.777,0,.518.013.838.342.669.658a.8.8,0,0,1-.721.33q-1.731.006-3.462,0c-.438,0-.764-.228-.763-.5s.319-.486.769-.492c.576-.008,1.154,0,1.731,0Z" transform="translate(-734.319 34.186)" fill="#fff"/>
    </g>
  </g>
</svg>
